# xmcd
#
# Track frame offsets:
#	150
#	15694
#	26925
#	40028
#	50603
#	65560
#	76966
#	91392
#	107946
#	119496
#
# Disc length: 1762 seconds
# Revision: 0
# Processed by: cddbd v1.5.2PL0 Copyright (c) Steve Scherf et al.
# Submitted via: dBpowerAMP V12.0
#
DISCID=8506e00a
DTITLE=Various Artist - More To Love
DYEAR=1900
DGENRE=Country
TTITLE0=Sandie Dobb - Dance Cowboy Dance
TTITLE1=Sandie Dobb - Bluer Skies
TTITLE2=Sandie Dobb - The Box
TTITLE3=Sandie Dobb - Brand New Day
TTITLE4=Sandie Dobb - Too Good To Last
TTITLE5=Sandie Dobb - Shattered Image
TTITLE6=Sandie Dobb - Turn It On, Turn It Up Turn Me Loose
TTITLE7=Sandie Dobb - There Ought To Be More To Love Than This
TTITLE8=Sandie Dodd - Rolling Green Hills
TTITLE9=Sandie Dobb - Your Cheating Heart
EXTD=
EXTT0=
EXTT1=
EXTT2=
EXTT3=
EXTT4=
EXTT5=
EXTT6=
EXTT7=
EXTT8=
EXTT9=
PLAYORDER=
